<?xml version="1.0" encoding="UTF-8"?>
<!DOCTYPE svg PUBLIC "-//W3C//DTD SVG 1.1//EN" "http://www.w3.org/Graphics/SVG/1.1/DTD/svg11.dtd">
<!-- Creator: CorelDRAW 2017 -->
<svg xmlns="http://www.w3.org/2000/svg" xml:space="preserve" width="38.1001mm" height="8.0641mm" version="1.1" style="shape-rendering:geometricPrecision; text-rendering:geometricPrecision; image-rendering:optimizeQuality; fill-rule:evenodd; clip-rule:evenodd"
viewBox="0 0 2443 517"
 xmlns:xlink="http://www.w3.org/1999/xlink">
 <defs>
  <style type="text/css">
   <![CDATA[
    .fil0 {fill:black}
   ]]>
  </style>
 </defs>
 <g id="Layer_x0020_1">
  <metadata id="CorelCorpID_0Corel-Layer"/>
  <g id="_1483123036528">
   <path class="fil0" d="M237 504c144,13 266,-75 280,-223 13,-147 -93,-256 -236,-269 -144,-13 -266,75 -280,223 -13,147 93,256 236,269zm41 -463c109,10 157,137 148,233 -9,96 -78,212 -187,202 -109,-10 -157,-137 -148,-233 9,-96 78,-212 187,-202z"/>
   <path class="fil0" d="M806 250c54,16 96,58 96,122 0,89 -78,129 -158,129l-180 0 0 -484 156 0c77,0 150,42 150,127 0,51 -26,86 -64,106zm-159 -8c19,0 38,0 58,0 59,0 78,-44 78,-98 0,-48 -24,-99 -78,-99l-58 0 0 197zm0 28l0 202c3,3 75,0 84,0 56,0 82,-50 82,-100 0,-48 -28,-102 -82,-102 -28,0 -56,0 -84,0z"/>
   <path class="fil0" d="M1001 99c93,-111 242,-136 357,-40 114,95 115,247 23,358 -93,111 -242,136 -356,41 -114,-95 -116,-248 -23,-359zm358 300c71,-85 14,-208 -60,-270 -74,-62 -206,-95 -276,-11 -71,84 -14,208 60,270 74,62 206,95 276,11z"/>
   <path class="fil0" d="M1683 16c145,0 224,104 224,242 0,139 -79,242 -224,242l-190 0 0 -484 190 0zm-29 456c124,0 163,-105 163,-214 0,-108 -39,-214 -163,-214l-79 0 0 427 79 0z"/>
   <path class="fil0" d="M2073 137l-64 163 126 0 -62 -163zm-75 191l-67 172 -30 0 189 -484 23 0 3 8 179 476 -83 0 -66 -173 -148 0z"/>
   <polygon class="fil0" points="2443,501 2361,501 2361,16 2443,16 "/>
  </g>
 </g>
</svg>
